<svg xmlns="http://www.w3.org/2000/svg" version="1.1" xmlns:xlink="http://www.w3.org/1999/xlink" xmlns:svgjs="http://svgjs.com/svgjs" width="320.7765114362836" height="339.312"><g transform="matrix(4.820457451342522,0,0,4.82045745134252,150.99999705782625,0.0000014710868754264084)"><svg xmlns="http://www.w3.org/2000/svg" version="1.1" xmlns:xlink="http://www.w3.org/1999/xlink" xmlns:svgjs="http://svgjs.com/svgjs" width="35.22" height="70.39"><svg xmlns="http://www.w3.org/2000/svg" version="1.1" xmlns:xlink="http://www.w3.org/1999/xlink" xmlns:svgjs="http://svgjs.com/svgjs" width="35.22" height="70.39" class="class-luhthkb6v"><svg xmlns="http://www.w3.org/2000/svg" viewBox="0 0 35.22 70.39" class="class-luhthkb6v">
    <g data-name="Layer 2">
        <g data-name="Layer 1">
            <rect width="35.22" height="70.39" rx="7.64" class="fill-color-0-shadow"></rect>
            <path d="M2.8 3.19h29.62v61.34H2.8z" class="fill-color-1-shadow"></path>
            <circle cx="17.61" cy="67.7" r="1.2" class="fill-color-0"></circle>
            <path d="M31.63 0h-28A3.59 3.59 0 000 3.59v15.79l35.22 34.8V3.59A3.59 3.59 0 0031.63 0z" fill-rule="evenodd" class="fill-color-0-shadow"></path>
            <path fill-rule="evenodd" d="M2.8 22.14l29.62 29.27V3.19H2.8v18.95z" class="fill-color-1"></path>
        </g>
    </g>
</svg></svg><style>.class-luhthkb6v .fill-skin {
  fill: #f1d9b1;
}
.class-luhthkb6v .fill-skin-shadow {
  fill: #ebc78d;
}
.class-luhthkb6v .fill-hair {
  fill: #438ccc;
}
.class-luhthkb6v .fill-hair-shadow {
  fill: #347ec0;
}
.class-luhthkb6v .fill-white {
  fill: #f0f0f0;
}
.class-luhthkb6v .fill-white-shadow {
  fill: #d8d8d8;
}
.class-luhthkb6v .fill-white-shadow-extra {
  fill: #c2c2c2;
}
.class-luhthkb6v .stop-color-white {
  stop-color: #f0f0f0;
}
.class-luhthkb6v .stop-color-white-shadow {
  stop-color: #d8d8d8;
}
.class-luhthkb6v .stop-color-white-shadow-extra {
  stop-color: #c2c2c2;
}
.class-luhthkb6v .stroke-white {
  stroke: #f0f0f0;
}
.class-luhthkb6v .stroke-white-shadow {
  stroke: #d8d8d8;
}
.class-luhthkb6v .stroke-white-shadow-extra {
  stroke: #b5b5b5;
}
.class-luhthkb6v .fill-yellow {
  fill: #eaea00;
}
.class-luhthkb6v .fill-yellow-shadow {
  fill: #dada00;
}
.class-luhthkb6v .fill-yellow-shadow-extra {
  fill: #cbcb00;
}
.class-luhthkb6v .stop-color-yellow {
  stop-color: #eaea00;
}
.class-luhthkb6v .stop-color-yellow-shadow {
  stop-color: #dada00;
}
.class-luhthkb6v .stop-color-yellow-shadow-extra {
  stop-color: #cbcb00;
}
.class-luhthkb6v .fill-green {
  fill: #2ba24c;
}
.class-luhthkb6v .fill-green-shadow {
  fill: #279244;
}
.class-luhthkb6v .fill-green-shadow-extra {
  fill: #23833d;
}
.class-luhthkb6v .stop-color-green {
  stop-color: #2ba24c;
}
.class-luhthkb6v .stop-color-green-shadow {
  stop-color: #279244;
}
.class-luhthkb6v .stop-color-green-shadow-extra {
  stop-color: #23833d;
}
.class-luhthkb6v .stroke-green {
  stroke: #2ba24c;
}
.class-luhthkb6v .stroke-green-shadow {
  stroke: #279244;
}
.class-luhthkb6v .stroke-green-shadow-extra {
  stroke: #217a39;
}
.class-luhthkb6v .fill-red {
  fill: #ce3827;
}
.class-luhthkb6v .fill-red-shadow {
  fill: #b93223;
}
.class-luhthkb6v .fill-red-shadow-extra {
  fill: #a62d1f;
}
.class-luhthkb6v .stop-color-red {
  stop-color: #ce3827;
}
.class-luhthkb6v .stop-color-red-shadow {
  stop-color: #b93223;
}
.class-luhthkb6v .stop-color-red-shadow-extra {
  stop-color: #a62d1f;
}
.class-luhthkb6v .fill-orange {
  fill: #f4ac4c;
}
.class-luhthkb6v .fill-orange-shadow {
  fill: #f29e2d;
}
.class-luhthkb6v .fill-orange-shadow-extra {
  fill: #f09112;
}
.class-luhthkb6v .stop-color-orange {
  stop-color: #f4ac4c;
}
.class-luhthkb6v .stop-color-orange-shadow {
  stop-color: #f29e2d;
}
.class-luhthkb6v .stop-color-orange-shadow-extra {
  stop-color: #f09112;
}
.class-luhthkb6v .fill-blue {
  fill: #438ccc;
}
.class-luhthkb6v .fill-blue-shadow {
  fill: #347ec0;
}
.class-luhthkb6v .fill-blue-shadow-extra {
  fill: #2f71ad;
}
.class-luhthkb6v .stop-color-blue {
  stop-color: #438ccc;
}
.class-luhthkb6v .stop-color-blue-shadow {
  stop-color: #347ec0;
}
.class-luhthkb6v .stop-color-blue-shadow-extra {
  stop-color: #2f71ad;
}
.class-luhthkb6v .fill-color-0 {
  fill: #438ccc;
}
.class-luhthkb6v .fill-color-0-shadow {
  fill: #347ec0;
}
.class-luhthkb6v .fill-color-0-shadow-extra {
  fill: #2c69a1;
}
.class-luhthkb6v .stop-color-color-0 {
  stop-color: #438ccc;
}
.class-luhthkb6v .fill-color-1 {
  fill: #f4ac4c;
}
.class-luhthkb6v .fill-color-1-shadow {
  fill: #f29e2d;
}
.class-luhthkb6v .fill-color-1-shadow-extra {
  fill: #e2880e;
}
.class-luhthkb6v .fill-body-detail {
  fill: #ffffff;
}
.class-luhthkb6v .stroke-color-0 {
  stroke: #438ccc;
}
.class-luhthkb6v .stroke-color-0-shadow {
  stroke: #347ec0;
}
.class-luhthkb6v .stroke-color-0-shadow-extra {
  stroke: #2c69a1;
}
.class-luhthkb6v .stroke-color-1 {
  stroke: #f4ac4c;
}
.class-luhthkb6v .stroke-color-1-shadow {
  stroke: #f29e2d;
}
.class-luhthkb6v .stroke-color-1-shadow-extra {
  stroke: #e2880e;
}</style></svg></g><g transform="matrix(1.7009009009009004,0,0,1.700900900900901,183.94073423423424,94.90844369369368)"><svg xmlns="http://www.w3.org/2000/svg" version="1.1" xmlns:xlink="http://www.w3.org/1999/xlink" xmlns:svgjs="http://svgjs.com/svgjs" width="60.61" height="65.49"><svg xmlns="http://www.w3.org/2000/svg" version="1.1" xmlns:xlink="http://www.w3.org/1999/xlink" xmlns:svgjs="http://svgjs.com/svgjs" width="60.61" height="65.49" class="class-nd7elk9n2"><svg xmlns="http://www.w3.org/2000/svg" xmlns:xlink="http://www.w3.org/1999/xlink" viewBox="0 0 60.61 65.49" class="class-nd7elk9n2">
    <defs>
        <clipPath id="a">
            <path d="M59.45 127.57h32.77v19.17a16.38 16.38 0 01-16.38 16.38h-5.52a10.88 10.88 0 01-10.88-10.88v-24.67z" fill="none"></path>
        </clipPath>
        <clipPath id="b">
            <path d="M92.22 152.47v-24.9H74.44v21.8s1 8-10.33 11.92a10.63 10.63 0 006 1.84h11.45a10.66 10.66 0 0010.66-10.66z" fill="none"></path>
        </clipPath>
        <symbol id="c" data-name="New Symbol 4" viewBox="0 0 151.7 163.89">
            <path d="M113.61 74.53a37.84 37.84 0 10-64.75 26.59 36.11 36.11 0 0110.63 25.32v1.13h32.56V126a34.85 34.85 0 0110.45-24.64 37.73 37.73 0 0011.11-26.83z" class="fill-yellow-shadow"></path>
            <path d="M59.7 127.57H92a.25.25 0 01.25.25v24.56a10.75 10.75 0 01-10.75 10.75H70.2a10.75 10.75 0 01-10.75-10.75v-24.56a.25.25 0 01.25-.25z" class="fill-color-0"></path>
            <path d="M26.13 75.77a2.09 2.09 0 01-2.08 2.09h-22a2.09 2.09 0 010-4.17h22a2.08 2.08 0 012.08 2.08zM125.57 75.93a2.09 2.09 0 012.08-2.09h22a2.09 2.09 0 010 4.17h-22a2.08 2.08 0 01-2.08-2.08zM75.93 26.13a2.09 2.09 0 01-2.09-2.08v-22a2.09 2.09 0 014.17 0v22a2.08 2.08 0 01-2.08 2.08zM40.75 40.64a2.09 2.09 0 01-3 0L22.27 25.11a2.09 2.09 0 112.95-2.95l15.53 15.53a2.09 2.09 0 010 2.95zM111 111.06a2.09 2.09 0 013 0l15.53 15.53a2.09 2.09 0 11-3 2.95L111 114a2.09 2.09 0 010-2.94zM111.06 40.75a2.09 2.09 0 010-3l15.53-15.53a2.09 2.09 0 112.95 2.95L114 40.75a2.09 2.09 0 01-2.94 0zM40.64 111a2.09 2.09 0 010 3l-15.53 15.43a2.09 2.09 0 11-2.95-3L37.69 111a2.09 2.09 0 012.95 0z" class="fill-yellow"></path>
            <path d="M48.79 72.26a2.09 2.09 0 01-2.08-2.09c0-6.87 3.21-13.32 9.28-18.65a38.66 38.66 0 019.12-6 2.09 2.09 0 111.65 3.83c-.16.07-15.89 7-15.89 20.78a2.09 2.09 0 01-2.08 2.13z" class="fill-white"></path>
            <circle cx="50.22" cy="79.77" r="2.36" class="fill-white"></circle>
            <g clip-path="url(#a)" class="fill-yellow">
                <path d="M107.19 127.39l-61.67 12.7-1.17-5.69 61.67-12.7 1.17 5.69zM107.19 139.29l-61.67 12.7-1.17-5.68 61.67-12.71 1.17 5.69zM107.19 151.19l-61.67 12.7-1.17-5.68 61.67-12.71 1.17 5.69z"></path>
            </g>
            <path d="M92.05 126a34.85 34.85 0 0110.45-24.64 37.83 37.83 0 00-18.23-63.7C104.55 48 98.9 77.05 85.76 89.2c-13.39 12.37-11.18 38.37-11.18 38.37h17.47z" class="fill-yellow-shadow-extra"></path>
            <path d="M92.22 152.47v-24.9H74.44v21.8s1 8-10.33 11.92a10.63 10.63 0 006 1.84h11.45a10.66 10.66 0 0010.66-10.66z" class="fill-color-0-shadow"></path>
            <g clip-path="url(#b)" class="fill-color-0">
                <path d="M107.19 127.39l-61.67 12.7-1.17-5.69 61.67-12.7 1.17 5.69zM107.19 139.29l-61.67 12.7-1.17-5.68 61.67-12.71 1.17 5.69zM107.19 151.19l-61.67 12.7-1.17-5.68 61.67-12.71 1.17 5.69z"></path>
            </g>
        </symbol>
    </defs>
    <g data-name="Layer 2">
        <use width="151.7" height="163.89" transform="scale(.4)" xlink:href="#c" data-name="Layer 1"></use>
    </g>
</svg></svg><style>.class-nd7elk9n2 .fill-skin {
  fill: #fafafa;
}
.class-nd7elk9n2 .fill-skin-shadow {
  fill: #e1e1e1;
}
.class-nd7elk9n2 .fill-hair {
  fill: #f4f4f4;
}
.class-nd7elk9n2 .fill-hair-shadow {
  fill: #dbdbdb;
}
.class-nd7elk9n2 .fill-white {
  fill: #fafafa;
}
.class-nd7elk9n2 .fill-white-shadow {
  fill: #e1e1e1;
}
.class-nd7elk9n2 .fill-white-shadow-extra {
  fill: #cacaca;
}
.class-nd7elk9n2 .stop-color-white {
  stop-color: #fafafa;
}
.class-nd7elk9n2 .stop-color-white-shadow {
  stop-color: #e1e1e1;
}
.class-nd7elk9n2 .stop-color-white-shadow-extra {
  stop-color: #cacaca;
}
.class-nd7elk9n2 .stroke-white {
  stroke: #fafafa;
}
.class-nd7elk9n2 .stroke-white-shadow {
  stroke: #e1e1e1;
}
.class-nd7elk9n2 .stroke-white-shadow-extra {
  stroke: #bcbcbc;
}
.class-nd7elk9n2 .fill-yellow {
  fill: #fafafa;
}
.class-nd7elk9n2 .fill-yellow-shadow {
  fill: #e9e9e9;
}
.class-nd7elk9n2 .fill-yellow-shadow-extra {
  fill: #d9d9d9;
}
.class-nd7elk9n2 .stop-color-yellow {
  stop-color: #fafafa;
}
.class-nd7elk9n2 .stop-color-yellow-shadow {
  stop-color: #e9e9e9;
}
.class-nd7elk9n2 .stop-color-yellow-shadow-extra {
  stop-color: #d9d9d9;
}
.class-nd7elk9n2 .fill-green {
  fill: #bcbcbc;
}
.class-nd7elk9n2 .fill-green-shadow {
  fill: #a9a9a9;
}
.class-nd7elk9n2 .fill-green-shadow-extra {
  fill: #989898;
}
.class-nd7elk9n2 .stop-color-green {
  stop-color: #bcbcbc;
}
.class-nd7elk9n2 .stop-color-green-shadow {
  stop-color: #a9a9a9;
}
.class-nd7elk9n2 .stop-color-green-shadow-extra {
  stop-color: #989898;
}
.class-nd7elk9n2 .stroke-green {
  stroke: #bcbcbc;
}
.class-nd7elk9n2 .stroke-green-shadow {
  stroke: #a9a9a9;
}
.class-nd7elk9n2 .stroke-green-shadow-extra {
  stroke: #8d8d8d;
}
.class-nd7elk9n2 .fill-red {
  fill: #bcbcbc;
}
.class-nd7elk9n2 .fill-red-shadow {
  fill: #a9a9a9;
}
.class-nd7elk9n2 .fill-red-shadow-extra {
  fill: #989898;
}
.class-nd7elk9n2 .stop-color-red {
  stop-color: #bcbcbc;
}
.class-nd7elk9n2 .stop-color-red-shadow {
  stop-color: #a9a9a9;
}
.class-nd7elk9n2 .stop-color-red-shadow-extra {
  stop-color: #989898;
}
.class-nd7elk9n2 .fill-orange {
  fill: #fafafa;
}
.class-nd7elk9n2 .fill-orange-shadow {
  fill: #e1e1e1;
}
.class-nd7elk9n2 .fill-orange-shadow-extra {
  fill: #cacaca;
}
.class-nd7elk9n2 .stop-color-orange {
  stop-color: #fafafa;
}
.class-nd7elk9n2 .stop-color-orange-shadow {
  stop-color: #e1e1e1;
}
.class-nd7elk9n2 .stop-color-orange-shadow-extra {
  stop-color: #cacaca;
}
.class-nd7elk9n2 .fill-blue {
  fill: #fafafa;
}
.class-nd7elk9n2 .fill-blue-shadow {
  fill: #e1e1e1;
}
.class-nd7elk9n2 .fill-blue-shadow-extra {
  fill: #cacaca;
}
.class-nd7elk9n2 .stop-color-blue {
  stop-color: #fafafa;
}
.class-nd7elk9n2 .stop-color-blue-shadow {
  stop-color: #e1e1e1;
}
.class-nd7elk9n2 .stop-color-blue-shadow-extra {
  stop-color: #cacaca;
}
.class-nd7elk9n2 .fill-color-0 {
  fill: #f4f4f4;
}
.class-nd7elk9n2 .fill-color-0-shadow {
  fill: #dbdbdb;
}
.class-nd7elk9n2 .fill-color-0-shadow-extra {
  fill: #b7b7b7;
}
.class-nd7elk9n2 .stop-color-color-0 {
  stop-color: #f4f4f4;
}
.class-nd7elk9n2 .fill-body-detail {
  fill: #ffffff;
}
.class-nd7elk9n2 .stroke-color-0 {
  stroke: #f4f4f4;
}
.class-nd7elk9n2 .stroke-color-0-shadow {
  stroke: #dbdbdb;
}
.class-nd7elk9n2 .stroke-color-0-shadow-extra {
  stroke: #b7b7b7;
}</style></svg></g><g transform="matrix(1.1553475472352228,0,0,1.1553475472352233,66.652,133.4505030334547)"><svg xmlns="http://www.w3.org/2000/svg" version="1.1" xmlns:xlink="http://www.w3.org/1999/xlink" xmlns:svgjs="http://svgjs.com/svgjs" width="115.38" height="15.52"><svg xmlns="http://www.w3.org/2000/svg" version="1.1" xmlns:xlink="http://www.w3.org/1999/xlink" xmlns:svgjs="http://svgjs.com/svgjs" width="115.38" height="15.52" class="class-b6aseljb6"><svg xmlns="http://www.w3.org/2000/svg" xmlns:xlink="http://www.w3.org/1999/xlink" viewBox="0 0 115.38 15.52" class="class-b6aseljb6">
    <defs>
        <symbol id="a" data-name="New Symbol 9" viewBox="0 0 617.1 83">
            <path d="M98.69 0h395.42v28H98.69z" class="fill-color-0"></path>
            <path d="M98.69 27h395.42v28H98.69z" class="fill-color-0-shadow-extra"></path>
            <path d="M98.69 27h395.42v28H98.69z" class="fill-color-0-shadow-extra"></path>
            <path d="M98.69 55h395.42v28H98.69z" class="fill-color-0-shadow"></path>
            <path d="M494.12 0l119.26 39.83a5.45 5.45 0 01-.28 10.42L494.12 83z" class="fill-color-1-shadow"></path>
            <path d="M494.12 27L607.2 44.53v7.07L494.12 83V27z" class="fill-color-1-shadow-extra"></path>
            <path d="M613.38 39.83l-16.08-5.37V54.6l15.8-4.35a5.45 5.45 0 00.28-10.42z" class="fill-color-0-shadow-extra"></path>
            <path d="M41.5 0h17.19v83H41.5A41.5 41.5 0 010 41.5 41.5 41.5 0 0141.5 0z" class="fill-color-0-shadow"></path>
            <path d="M58.69 27.07c-26.49 0-46.54 14.43-50 39.77A41.41 41.41 0 0041.5 83h17.19z" class="fill-color-0-shadow-extra"></path>
            <path d="M58.69 0h40v83h-40z" class="fill-color-1"></path>
            <path d="M58.69 27h40v56h-40z" class="fill-color-1-shadow"></path>
        </symbol>
    </defs>
    <g data-name="Layer 2">
        <use width="617.1" height="83" transform="scale(.19)" xlink:href="#a" data-name="Layer 1"></use>
    </g>
</svg></svg><style>.class-b6aseljb6 .fill-skin {
  fill: #d4d4d4;
}
.class-b6aseljb6 .fill-skin-shadow {
  fill: #bebebe;
}
.class-b6aseljb6 .fill-hair {
  fill: #6d6d6d;
}
.class-b6aseljb6 .fill-hair-shadow {
  fill: #626262;
}
.class-b6aseljb6 .fill-white {
  fill: #f0f0f0;
}
.class-b6aseljb6 .fill-white-shadow {
  fill: #d8d8d8;
}
.class-b6aseljb6 .fill-white-shadow-extra {
  fill: #c2c2c2;
}
.class-b6aseljb6 .stop-color-white {
  stop-color: #f0f0f0;
}
.class-b6aseljb6 .stop-color-white-shadow {
  stop-color: #d8d8d8;
}
.class-b6aseljb6 .stop-color-white-shadow-extra {
  stop-color: #c2c2c2;
}
.class-b6aseljb6 .stroke-white {
  stroke: #f0f0f0;
}
.class-b6aseljb6 .stroke-white-shadow {
  stroke: #d8d8d8;
}
.class-b6aseljb6 .stroke-white-shadow-extra {
  stroke: #b5b5b5;
}
.class-b6aseljb6 .fill-yellow {
  fill: #a4a4a4;
}
.class-b6aseljb6 .fill-yellow-shadow {
  fill: #999999;
}
.class-b6aseljb6 .fill-yellow-shadow-extra {
  fill: #8e8e8e;
}
.class-b6aseljb6 .stop-color-yellow {
  stop-color: #a4a4a4;
}
.class-b6aseljb6 .stop-color-yellow-shadow {
  stop-color: #999999;
}
.class-b6aseljb6 .stop-color-yellow-shadow-extra {
  stop-color: #8e8e8e;
}
.class-b6aseljb6 .fill-green {
  fill: #5c5c5c;
}
.class-b6aseljb6 .fill-green-shadow {
  fill: #535353;
}
.class-b6aseljb6 .fill-green-shadow-extra {
  fill: #4b4b4b;
}
.class-b6aseljb6 .stop-color-green {
  stop-color: #5c5c5c;
}
.class-b6aseljb6 .stop-color-green-shadow {
  stop-color: #535353;
}
.class-b6aseljb6 .stop-color-green-shadow-extra {
  stop-color: #4b4b4b;
}
.class-b6aseljb6 .stroke-green {
  stroke: #5c5c5c;
}
.class-b6aseljb6 .stroke-green-shadow {
  stroke: #535353;
}
.class-b6aseljb6 .stroke-green-shadow-extra {
  stroke: #454545;
}
.class-b6aseljb6 .fill-red {
  fill: #5c5c5c;
}
.class-b6aseljb6 .fill-red-shadow {
  fill: #535353;
}
.class-b6aseljb6 .fill-red-shadow-extra {
  fill: #4b4b4b;
}
.class-b6aseljb6 .stop-color-red {
  stop-color: #5c5c5c;
}
.class-b6aseljb6 .stop-color-red-shadow {
  stop-color: #535353;
}
.class-b6aseljb6 .stop-color-red-shadow-extra {
  stop-color: #4b4b4b;
}
.class-b6aseljb6 .fill-orange {
  fill: #898989;
}
.class-b6aseljb6 .fill-orange-shadow {
  fill: #7b7b7b;
}
.class-b6aseljb6 .fill-orange-shadow-extra {
  fill: #6f6f6f;
}
.class-b6aseljb6 .stop-color-orange {
  stop-color: #898989;
}
.class-b6aseljb6 .stop-color-orange-shadow {
  stop-color: #7b7b7b;
}
.class-b6aseljb6 .stop-color-orange-shadow-extra {
  stop-color: #6f6f6f;
}
.class-b6aseljb6 .fill-blue {
  fill: #898989;
}
.class-b6aseljb6 .fill-blue-shadow {
  fill: #7b7b7b;
}
.class-b6aseljb6 .fill-blue-shadow-extra {
  fill: #6f6f6f;
}
.class-b6aseljb6 .stop-color-blue {
  stop-color: #898989;
}
.class-b6aseljb6 .stop-color-blue-shadow {
  stop-color: #7b7b7b;
}
.class-b6aseljb6 .stop-color-blue-shadow-extra {
  stop-color: #6f6f6f;
}
.class-b6aseljb6 .fill-color-0 {
  fill: #6d6d6d;
}
.class-b6aseljb6 .fill-color-0-shadow {
  fill: #626262;
}
.class-b6aseljb6 .fill-color-0-shadow-extra {
  fill: #525252;
}
.class-b6aseljb6 .stop-color-color-0 {
  stop-color: #6d6d6d;
}
.class-b6aseljb6 .fill-color-1 {
  fill: #5c5c5c;
}
.class-b6aseljb6 .fill-color-1-shadow {
  fill: #535353;
}
.class-b6aseljb6 .fill-color-1-shadow-extra {
  fill: #454545;
}
.class-b6aseljb6 .fill-body-detail {
  fill: #ffffff;
}
.class-b6aseljb6 .stroke-color-0 {
  stroke: #6d6d6d;
}
.class-b6aseljb6 .stroke-color-0-shadow {
  stroke: #626262;
}
.class-b6aseljb6 .stroke-color-0-shadow-extra {
  stroke: #525252;
}
.class-b6aseljb6 .stroke-color-1 {
  stroke: #5c5c5c;
}
.class-b6aseljb6 .stroke-color-1-shadow {
  stroke: #535353;
}
.class-b6aseljb6 .stroke-color-1-shadow-extra {
  stroke: #454545;
}</style></svg></g></svg>